PathFileType	4	(X/Y/Z) shrug_0kg_1.trc																										
DataRate	CameraRate	NumFrames	NumMarkers	Units	OrigDataRate	OrigDataStartFrame	OrigNumFrames																					
100	100	49	9	mm	100	133	462																					
Frame#	Time	gu			centelbow			EpL			centpxt8			centijc7			ij			ts			aa			ai		
		X1	Y1	Z1	X2	Y2	Z2	X3	Y3	Z3	X4	Y4	Z4	X5	Y5	Z5	X6	Y6	Z6	X7	Y7	Z7	X8	Y8	Z8	X9	Y9	Z9
132	1.32	-66.871	39.965	162.873	-73.171	-194.401	240.444	-52.185	-183.504	262.359	-46.816	-153.158	-8.669	-46.816	31.938	-8.669	0	0	0	-130.038	53.032	54.49	-91.919	79.465	164.367	-150.842	-51.853	92.597
133	1.33	-66.559	41.205	162.942	-72.385	-192.992	241.059	-51.37	-182.016	262.907	-46.816	-153.158	-8.669	-46.816	31.938	-8.669	0	0	0	-129.878	53.235	53.884	-91.432	80.566	163.427	-150.288	-51.417	92.832
134	1.34	-66.475	42.185	162.796	-72.012	-191.854	241.406	-50.955	-180.823	263.186	-46.816	-153.158	-8.669	-46.816	31.938	-8.669	0	0	0	-129.904	53.505	52.996	-91.12	81.715	162.197	-149.913	-50.914	92.769
135	1.35	-66.366	42.989	162.309	-71.739	-190.91	241.346	-50.622	-179.845	263.05	-46.816	-153.158	-8.669	-46.816	31.938	-8.669	0	0	0	-129.939	53.861	52.013	-90.847	82.87	160.894	-149.589	-50.337	92.538
136	1.36	-66.015	43.589	161.911	-71.326	-190.186	241.319	-50.14	-179.102	262.946	-46.816	-153.158	-8.669	-46.816	31.938	-8.669	0	0	0	-129.813	54.203	51.314	-90.467	83.881	159.923	-149.197	-49.794	92.477
137	1.37	-65.454	44.066	161.879	-70.736	-189.604	241.597	-49.481	-178.511	263.151	-46.816	-153.158	-8.669	-46.816	31.938	-8.669	0	0	0	-129.618	54.54	51.046	-90.074	84.768	159.431	-148.808	-49.283	92.74
138	1.38	-64.939	44.732	162.01	-70.122	-188.863	241.953	-48.789	-177.766	263.428	-46.816	-153.158	-8.669	-46.816	31.938	-8.669	0	0	0	-129.485	54.869	51.063	-89.787	85.591	159.253	-148.525	-48.789	93.23
139	1.39	-64.611	45.911	161.873	-69.521	-187.638	241.968	-48.09	-176.535	263.343	-46.816	-153.158	-8.669	-46.816	31.938	-8.669	0	0	0	-129.413	55.114	51.195	-89.568	86.328	159.19	-148.32	-48.373	93.838
140	1.4	-64.31	47.472	161.404	-68.773	-186.041	241.629	-47.225	-174.928	262.881	-46.816	-153.158	-8.669	-46.816	31.938	-8.669	0	0	0	-129.41	55.219	51.311	-89.388	86.94	159.092	-148.178	-48.088	94.451
141	1.41	-63.855	48.97	160.984	-67.839	-184.493	241.382	-46.164	-173.367	262.497	-46.816	-153.158	-8.669	-46.816	31.938	-8.669	0	0	0	-129.508	55.243	51.244	-89.279	87.467	158.798	-148.103	-47.888	94.877
142	1.42	-63.409	50.161	160.772	-67.024	-183.226	241.405	-45.218	-172.092	262.38	-46.816	-153.158	-8.669	-46.816	31.938	-8.669	0	0	0	-129.7	55.348	50.928	-89.269	88.049	158.263	-148.086	-47.627	95.018
143	1.43	-63.297	51.005	160.397	-66.693	-182.306	241.259	-44.757	-171.176	262.1	-46.816	-153.158	-8.669	-46.816	31.938	-8.669	0	0	0	-129.942	55.612	50.527	-89.338	88.749	157.662	-148.114	-47.225	95.023
144	1.44	-63.492	51.447	159.713	-66.796	-181.812	240.731	-44.742	-170.698	261.457	-46.816	-153.158	-8.669	-46.816	31.938	-8.669	0	0	0	-130.065	55.902	50.234	-89.316	89.421	157.196	-148.066	-46.809	95.092
145	1.45	-63.61	51.528	159.184	-66.902	-181.692	240.314	-44.767	-170.594	260.96	-46.816	-153.158	-8.669	-46.816	31.938	-8.669	0	0	0	-129.953	56.041	50.06	-89.079	89.892	156.87	-147.843	-46.548	95.238
146	1.46	-63.41	51.463	159.1	-66.703	-181.716	240.348	-44.527	-170.621	260.953	-46.816	-153.158	-8.669	-46.816	31.938	-8.669	0	0	0	-129.797	56.001	49.965	-88.822	90.139	156.644	-147.6	-46.479	95.425
147	1.47	-63.051	51.47	159.212	-66.28	-181.671	240.571	-44.091	-170.565	261.156	-46.816	-153.158	-8.669	-46.816	31.938	-8.669	0	0	0	-129.804	55.836	49.994	-88.76	90.224	156.566	-147.52	-46.554	95.689
148	1.48	-62.833	51.625	159.281	-65.947	-181.487	240.727	-43.76	-170.364	261.304	-46.816	-153.158	-8.669	-46.816	31.938	-8.669	0	0	0	-129.873	55.656	50.083	-88.795	90.253	156.574	-147.505	-46.666	95.963
149	1.49	-62.84	51.82	159.291	-65.9	-181.27	240.802	-43.727	-170.132	261.387	-46.816	-153.158	-8.669	-46.816	31.938	-8.669	0	0	0	-129.831	55.581	50.005	-88.751	90.346	156.441	-147.397	-46.688	96.028
150	1.5	-62.949	51.949	159.2	-66.076	-181.129	240.74	-43.925	-169.987	261.346	-46.816	-153.158	-8.669	-46.816	31.938	-8.669	0	0	0	-129.763	55.587	49.671	-88.712	90.47	156.08	-147.299	-46.643	95.792
151	1.51	-63.106	52.056	158.975	-66.386	-181.03	240.491	-44.26	-169.893	261.127	-46.816	-153.158	-8.669	-46.816	31.938	-8.669	0	0	0	-129.819	55.573	49.258	-88.848	90.5	155.682	-147.4	-46.635	95.41
152	1.52	-63.395	52.119	158.726	-66.921	-180.997	240.143	-44.827	-169.879	260.823	-46.816	-153.158	-8.669	-46.816	31.938	-8.669	0	0	0	-129.944	55.546	48.95	-89.133	90.441	155.447	-147.656	-46.658	95.062
153	1.53	-63.821	51.995	158.51	-67.732	-181.174	239.756	-45.677	-170.089	260.496	-46.816	-153.158	-8.669	-46.816	31.938	-8.669	0	0	0	-130.018	55.544	48.71	-89.447	90.363	155.323	-147.918	-46.666	94.734
154	1.54	-64.25	51.672	158.243	-68.63	-181.559	239.287	-46.621	-170.514	260.097	-46.816	-153.158	-8.669	-46.816	31.938	-8.669	0	0	0	-130.051	55.514	48.328	-89.733	90.239	155.068	-148.156	-46.708	94.247
155	1.55	-64.595	51.341	157.935	-69.425	-181.943	238.804	-47.464	-170.932	259.683	-46.816	-153.158	-8.669	-46.816	31.938	-8.669	0	0	0	-130.089	55.481	47.772	-89.991	90.104	154.628	-148.402	-46.751	93.586
156	1.56	-64.873	51.224	157.723	-70.078	-182.094	238.469	-48.164	-171.109	259.41	-46.816	-153.158	-8.669	-46.816	31.938	-8.669	0	0	0	-130.181	55.645	47.289	-90.282	90.169	154.252	-148.691	-46.595	93.004
157	1.57	-65.1	51.369	157.611	-70.582	-181.964	238.293	-48.709	-170.994	259.284	-46.816	-153.158	-8.669	-46.816	31.938	-8.669	0	0	0	-130.353	56.003	47.025	-90.63	90.442	154.08	-149.045	-46.241	92.659
158	1.58	-65.266	51.613	157.545	-70.931	-181.716	238.227	-49.088	-170.75	259.252	-46.816	-153.158	-8.669	-46.816	31.938	-8.669	0	0	0	-130.514	56.235	46.922	-90.915	90.606	154.045	-149.39	-45.998	92.504
159	1.59	-65.499	51.733	157.614	-71.277	-181.564	238.379	-49.46	-170.591	259.427	-46.816	-153.158	-8.669	-46.816	31.938	-8.669	0	0	0	-130.639	56.173	46.976	-91.124	90.486	154.149	-149.718	-46.033	92.535
160	1.6	-65.966	51.627	157.955	-71.805	-181.614	238.88	-50.014	-170.623	259.946	-46.816	-153.158	-8.669	-46.816	31.938	-8.669	0	0	0	-130.871	55.933	47.238	-91.436	90.207	154.453	-150.145	-46.24	92.788
161	1.61	-66.499	51.383	158.494	-72.318	-181.795	239.602	-50.556	-170.776	260.684	-46.816	-153.158	-8.669	-46.816	31.938	-8.669	0	0	0	-131.157	55.673	47.572	-91.806	89.925	154.824	-150.579	-46.475	93.116
162	1.62	-66.785	51.194	158.887	-72.425	-181.931	240.161	-50.688	-170.875	261.248	-46.816	-153.158	-8.669	-46.816	31.938	-8.669	0	0	0	-131.235	55.523	47.709	-91.953	89.772	154.987	-150.731	-46.613	93.248
163	1.63	-66.825	51.189	158.877	-72.116	-181.897	240.285	-50.391	-170.798	261.362	-46.816	-153.158	-8.669	-46.816	31.938	-8.669	0	0	0	-131.056	55.531	47.606	-91.823	89.791	154.899	-150.558	-46.604	93.143
164	1.64	-66.817	51.332	158.637	-71.722	-181.734	240.124	-49.995	-170.599	261.181	-46.816	-153.158	-8.669	-46.816	31.938	-8.669	0	0	0	-130.836	55.614	47.504	-91.653	89.887	154.811	-150.322	-46.528	93.035
165	1.65	-66.854	51.489	158.491	-71.495	-181.585	239.973	-49.762	-170.431	261.014	-46.816	-153.158	-8.669	-46.816	31.938	-8.669	0	0	0	-130.75	55.685	47.518	-91.623	89.966	154.843	-150.229	-46.463	93.038
166	1.66	-66.916	51.566	158.43	-71.422	-181.535	239.842	-49.682	-170.379	260.874	-46.816	-153.158	-8.669	-46.816	31.938	-8.669	0	0	0	-130.752	55.677	47.454	-91.665	89.972	154.789	-150.232	-46.469	92.976
167	1.67	-66.99	51.535	158.25	-71.404	-181.594	239.586	-49.656	-170.44	260.611	-46.816	-153.158	-8.669	-46.816	31.938	-8.669	0	0	0	-130.741	55.511	47.193	-91.675	89.828	154.529	-150.223	-46.628	92.731
168	1.68	-67.12	51.414	157.979	-71.449	-181.732	239.272	-49.699	-170.577	260.293	-46.816	-153.158	-8.669	-46.816	31.938	-8.669	0	0	0	-130.74	55.237	46.951	-91.721	89.572	154.298	-150.242	-46.894	92.498
169	1.69	-67.286	51.26	157.838	-71.546	-181.9	239.095	-49.805	-170.739	260.123	-46.816	-153.158	-8.669	-46.816	31.938	-8.669	0	0	0	-130.779	55.069	46.889	-91.865	89.411	154.272	-150.321	-47.061	92.421
170	1.7	-67.388	51.118	157.903	-71.565	-182.074	239.072	-49.842	-170.909	260.116	-46.816	-153.158	-8.669	-46.816	31.938	-8.669	0	0	0	-130.818	55.116	46.827	-92.042	89.453	154.261	-150.387	-47.026	92.322
171	1.71	-67.449	51.014	158.088	-71.487	-182.246	239.071	-49.781	-171.081	260.133	-46.816	-153.158	-8.669	-46.816	31.938	-8.669	0	0	0	-130.884	55.256	46.607	-92.254	89.564	154.104	-150.478	-46.909	92.038
172	1.72	-67.656	50.965	158.36	-71.522	-182.396	239.058	-49.827	-171.241	260.136	-46.816	-153.158	-8.669	-46.816	31.938	-8.669	0	0	0	-131.076	55.368	46.383	-92.629	89.605	153.967	-150.752	-46.826	91.713
173	1.73	-68.128	50.919	158.75	-71.86	-182.564	239.099	-50.174	-171.427	260.196	-46.816	-153.158	-8.669	-46.816	31.938	-8.669	0	0	0	-131.385	55.525	46.319	-93.187	89.666	154.022	-151.224	-46.691	91.528
174	1.74	-68.748	50.815	159.198	-72.443	-182.799	239.166	-50.766	-171.691	260.288	-46.816	-153.158	-8.669	-46.816	31.938	-8.669	0	0	0	-131.652	55.811	46.335	-93.737	89.863	154.166	-151.7	-46.415	91.431
175	1.75	-69.276	50.713	159.524	-73.005	-183.047	239.067	-51.338	-171.976	260.219	-46.816	-153.158	-8.669	-46.816	31.938	-8.669	0	0	0	-131.802	56.125	46.308	-94.139	90.091	154.255	-152.064	-46.103	91.302
176	1.76	-69.55	50.615	159.538	-73.323	-183.309	238.59	-51.667	-172.283	259.777	-46.816	-153.158	-8.669	-46.816	31.938	-8.669	0	0	0	-131.918	56.352	46.228	-94.457	90.209	154.28	-152.377	-45.886	91.109
177	1.77	-69.645	50.331	159.169	-73.513	-183.766	237.706	-51.87	-172.79	258.932	-46.816	-153.158	-8.669	-46.816	31.938	-8.669	0	0	0	-132.078	56.507	46.09	-94.78	90.231	154.24	-152.711	-45.753	90.841
178	1.78	-69.792	49.853	158.576	-73.88	-184.404	236.621	-52.256	-173.485	257.895	-46.816	-153.158	-8.669	-46.816	31.938	-8.669	0	0	0	-132.3	56.636	45.821	-95.109	90.213	154.053	-153.103	-45.646	90.445
179	1.79	-70.096	49.498	157.999	-74.517	-184.906	235.586	-52.918	-174.046	256.915	-46.816	-153.158	-8.669	-46.816	31.938	-8.669	0	0	0	-132.585	56.794	45.383	-95.419	90.215	153.672	-153.562	-45.501	89.894
180	1.8	-70.47	49.443	157.577	-75.275	-185.095	234.733	-53.706	-174.295	256.124	-46.816	-153.158	-8.669	-46.816	31.938	-8.669	0	0	0	-132.828	57.022	44.903	-95.649	90.28	153.238	-153.979	-45.285	89.307
